<?xml version="1.0" encoding="utf-8"?>
<!-- Generator: Adobe Illustrator 16.0.0, SVG Export Plug-In . SVG Version: 6.00 Build 0)  -->
<!DOCTYPE svg PUBLIC "-//W3C//DTD SVG 1.1//EN" "http://www.w3.org/Graphics/SVG/1.1/DTD/svg11.dtd">
<svg version="1.1" id="Layer_1" xmlns="http://www.w3.org/2000/svg" xmlns:xlink="http://www.w3.org/1999/xlink" x="0px" y="0px"
	 width="53px" height="52px" viewBox="0 0 53 52" enable-background="new 0 0 53 52" xml:space="preserve">
<g opacity="0.8">
	<circle opacity="0.7" fill="#68BECD" enable-background="new    " cx="26.531" cy="26" r="6.185"/>
	<g>
		<path fill="#203A6D" d="M50.502,26h-15.4c0,2.108-0.762,4.041-2.024,5.534l4.75,4.004c2.444,1.974,5.17,2.25,6.899,2.318
			C49.241,38.036,53,34.183,53,29.667v-1.412C53,27.015,51.742,26,50.502,26z"/>
		<path opacity="0.5" fill="#68BECD" enable-background="new    " d="M35.07,25.271l6.186-0.525
			c3.125-0.334,5.162-1.979,6.434-3.154c3.318-3.065,3.167-8.362-0.025-11.555l-0.999-0.999c-0.877-0.877-2.312-0.877-3.188,0
			L32.583,19.931C33.976,21.32,34.895,23.189,35.07,25.271z"/>
		<path fill="#203A6D" d="M36.054,14.686c1.976-2.445,2.248-4.925,2.316-6.657C38.55,3.516,34.695,0,30.179,0h-1.412
			c-1.239,0-1.768,0.77-1.768,2.01v15.42c2,0,3.792,0.757,5.282,2.012L36.054,14.686z"/>
		<path opacity="0.5" fill="#68BECD" enable-background="new    " d="M25.785,17.463l-0.529-6.207
			c-0.334-3.126-1.979-5.161-3.154-6.434c-3.063-3.317-8.361-3.166-11.555,0.026L9.549,5.848c-0.877,0.877-0.877,2.312,0,3.189
			l10.914,10.914C21.849,18.559,23.712,17.642,25.785,17.463z"/>
		<path fill="#203A6D" d="M15.198,16.462c-2.446-1.975-5.183-2.25-6.913-2.319C3.771,13.964,0,17.816,0,22.332v1.412
			c0,1.239,1.27,2.255,2.51,2.255h15.453c0-2.126,0.756-4.023,2.01-5.515L15.198,16.462z"/>
		<path opacity="0.5" fill="#68BECD" enable-background="new    " d="M11.767,27.255c-3.125,0.334-5.161,1.979-6.434,3.154
			c-3.317,3.064-3.166,8.361,0.026,11.555l0.998,0.999c0.877,0.877,2.312,0.877,3.189,0l10.914-10.914
			c-1.385-1.39-2.296-3.252-2.469-5.324L11.767,27.255z"/>
		<path fill="#203A6D" d="M16.979,37.313c-1.975,2.446-2.253,4.926-2.321,6.657C14.478,48.483,18.328,52,22.845,52h1.412
			C25.497,52,27,51.229,27,49.99V34.569c-3,0-4.271-0.762-5.767-2.023L16.979,37.313z"/>
		<path opacity="0.5" fill="#68BECD" enable-background="new    " d="M27.767,40.744c0.334,3.126,1.979,5.161,3.154,6.434
			c3.064,3.318,8.361,3.166,11.555-0.027l0.998-0.998c0.877-0.877,0.877-2.312,0-3.188L32.581,32.069
			c-1.396,1.391-3.264,2.302-5.343,2.472L27.767,40.744z"/>
	</g>
</g>
</svg>
