<?xml version="1.0" encoding="utf-8"?>
<!-- Generator: Adobe Illustrator 16.0.0, SVG Export Plug-In . SVG Version: 6.00 Build 0)  -->
<!DOCTYPE svg PUBLIC "-//W3C//DTD SVG 1.1//EN" "http://www.w3.org/Graphics/SVG/1.1/DTD/svg11.dtd">
<svg version="1.1" id="Layer_1" xmlns="http://www.w3.org/2000/svg" xmlns:xlink="http://www.w3.org/1999/xlink" x="0px" y="0px"
	 width="283.112px" height="30.479px" viewBox="0 36.325 283.112 30.479" enable-background="new 0 36.325 283.112 30.479"
	 xml:space="preserve">
<g>
	<g>
		<path fill="#1E396E" d="M0,37.042h6.993l3.496,13.625c0.448,1.614,0.844,3.176,1.188,4.685s0.74,3.07,1.188,4.685h0.179
			c0.418-1.613,0.808-3.176,1.166-4.685s0.747-3.069,1.166-4.685l3.451-13.625h6.723l-8.784,29.224H8.83L0,37.042z"/>
		<path fill="#1E396E" d="M28.687,37.042h6.589v29.224h-6.589V37.042z"/>
		<path fill="#1E396E" d="M40.789,51.834c0-2.42,0.373-4.579,1.121-6.478c0.747-1.897,1.755-3.503,3.025-4.818
			c1.27-1.314,2.749-2.315,4.438-3.003s3.475-1.031,5.356-1.031c1.821,0,3.474,0.381,4.953,1.143
			c1.479,0.763,2.711,1.651,3.697,2.667l-3.631,4.078c-0.747-0.687-1.501-1.224-2.263-1.613c-0.762-0.388-1.651-0.583-2.667-0.583
			s-1.965,0.218-2.846,0.65c-0.883,0.435-1.651,1.054-2.31,1.86s-1.173,1.793-1.546,2.959c-0.374,1.164-0.56,2.479-0.56,3.942
			c0,3.021,0.642,5.356,1.927,7.017c1.285,1.658,3.003,2.485,5.155,2.485c1.194,0,2.24-0.237,3.137-0.717
			c0.896-0.478,1.704-1.104,2.42-1.883l3.631,3.99c-1.226,1.434-2.622,2.51-4.19,3.227c-1.569,0.717-3.266,1.076-5.088,1.076
			c-1.882,0-3.66-0.322-5.334-0.964s-3.137-1.591-4.393-2.847c-1.255-1.255-2.241-2.816-2.958-4.685
			C41.147,56.443,40.789,54.284,40.789,51.834z"/>
		<path fill="#1E396E" d="M73.418,42.601h-8.022v-5.558h22.68v5.558h-8.023v23.666h-6.634V42.601z"/>
		<path fill="#1E396E" d="M103.27,66.805c-1.973,0-3.772-0.352-5.401-1.054s-3.024-1.71-4.19-3.025
			c-1.166-1.313-2.069-2.913-2.713-4.796c-0.643-1.883-0.963-4.019-0.963-6.41c0-2.39,0.321-4.52,0.963-6.387
			c0.643-1.867,1.547-3.436,2.713-4.707c1.166-1.27,2.562-2.241,4.19-2.913c1.628-0.672,3.429-1.009,5.401-1.009
			c1.972,0,3.771,0.336,5.4,1.009c1.628,0.672,3.025,1.651,4.191,2.937c1.165,1.284,2.069,2.861,2.711,4.729
			s0.964,3.982,0.964,6.342c0,2.393-0.321,4.527-0.964,6.41s-1.546,3.481-2.711,4.796c-1.166,1.315-2.562,2.323-4.191,3.025
			S105.242,66.805,103.27,66.805z M103.27,61.111c2.002,0,3.586-0.856,4.751-2.575c1.165-1.72,1.748-4.058,1.748-7.017
			c0-2.928-0.583-5.213-1.748-6.856c-1.166-1.644-2.75-2.465-4.751-2.465s-3.585,0.821-4.751,2.465
			c-1.166,1.645-1.748,3.93-1.748,6.856c0,2.959,0.583,5.297,1.748,7.017C99.684,60.254,101.268,61.111,103.27,61.111z"/>
		<path fill="#1E396E" d="M135.873,66.267l-5.603-10.533h-3.631v10.533h-6.59V37.042h10.533c1.555,0,3.01,0.149,4.371,0.448
			c1.359,0.299,2.547,0.8,3.563,1.501c1.016,0.702,1.821,1.636,2.42,2.801c0.598,1.166,0.896,2.615,0.896,4.347
			c0,2.152-0.471,3.923-1.412,5.312c-0.94,1.389-2.204,2.428-3.788,3.114l6.635,11.698h-7.395V66.267z M126.639,50.49h3.406
			c1.732,0,3.056-0.366,3.968-1.1c0.91-0.73,1.366-1.813,1.366-3.25c0-1.434-0.456-2.435-1.366-3.002
			c-0.912-0.567-2.234-0.852-3.968-0.852h-3.406V50.49z"/>
		<path fill="#1E396E" d="M147.661,37.042h6.589v29.224h-6.589V37.042z"/>
		<path fill="#1E396E" d="M174.868,59.319h-8.919l-1.793,6.947h-6.724l9.144-29.224h7.934l9.145,29.224h-6.992L174.868,59.319z
			 M173.523,54.164l-0.673-2.689c-0.418-1.463-0.822-3.018-1.209-4.661c-0.39-1.643-0.777-3.227-1.166-4.751h-0.181
			c-0.357,1.555-0.725,3.146-1.098,4.773c-0.374,1.629-0.771,3.176-1.188,4.639l-0.717,2.689H173.523z"/>
		<path fill="#66BDCC" d="M191.094,36.863h16.941V40h-13.223v9.951h11.206v3.138h-11.206v13.178h-3.721V36.863H191.094z"/>
		<path fill="#66BDCC" d="M225.024,57.303h-10.713l-2.824,8.964h-3.812l9.951-29.402h4.213l9.951,29.402h-3.988L225.024,57.303z
			 M224.083,54.299l-1.391-4.482c-0.537-1.643-1.046-3.278-1.523-4.907c-0.479-1.628-0.957-3.294-1.434-4.997h-0.18
			c-0.449,1.703-0.912,3.369-1.391,4.997c-0.479,1.629-0.985,3.266-1.523,4.907l-1.39,4.482H224.083z"/>
		<path fill="#66BDCC" d="M235.96,36.863h3.855l10.623,18.468l3.182,6.096h0.18c-0.09-1.494-0.188-3.04-0.291-4.639
			c-0.104-1.6-0.156-3.177-0.156-4.729V36.863h3.541v29.403h-3.854L242.37,47.755l-3.183-6.051h-0.18
			c0.119,1.494,0.23,3.011,0.337,4.55c0.104,1.539,0.155,3.086,0.155,4.639v15.374h-3.541L235.96,36.863L235.96,36.863z"/>
		<path fill="#68BECD" d="M265.05,59.857c1.046,1.105,2.277,1.994,3.697,2.666c1.419,0.673,2.892,1.01,4.415,1.01
			c1.942,0,3.452-0.44,4.527-1.322c1.075-0.881,1.613-2.039,1.613-3.475c0-0.745-0.129-1.382-0.382-1.903
			c-0.254-0.523-0.599-0.972-1.029-1.347c-0.435-0.373-0.949-0.709-1.547-1.008c-0.599-0.299-1.24-0.611-1.929-0.94l-4.213-1.838
			c-0.688-0.3-1.39-0.656-2.106-1.076c-0.718-0.418-1.359-0.926-1.928-1.523c-0.567-0.597-1.029-1.307-1.39-2.129
			c-0.358-0.822-0.537-1.771-0.537-2.846c0-1.106,0.23-2.138,0.694-3.093c0.463-0.956,1.104-1.785,1.927-2.488
			c0.822-0.702,1.793-1.247,2.914-1.636s2.354-0.583,3.697-0.583c1.764,0,3.392,0.336,4.887,1.009
			c1.493,0.672,2.764,1.546,3.809,2.622l-2.016,2.42c-0.896-0.867-1.891-1.546-2.981-2.04c-1.09-0.494-2.322-0.74-3.697-0.74
			c-1.644,0-2.966,0.381-3.968,1.144c-1.001,0.762-1.501,1.814-1.501,3.159c0,0.718,0.143,1.322,0.427,1.814
			c0.283,0.494,0.665,0.928,1.144,1.301c0.478,0.373,1,0.702,1.568,0.986c0.565,0.283,1.149,0.545,1.748,0.783l4.168,1.793
			c0.836,0.358,1.629,0.771,2.376,1.232c0.747,0.464,1.39,1.001,1.927,1.613c0.539,0.612,0.965,1.33,1.277,2.151
			c0.313,0.821,0.471,1.771,0.471,2.847c0,1.165-0.231,2.257-0.694,3.271c-0.464,1.017-1.128,1.904-1.995,2.666
			c-0.865,0.763-1.911,1.36-3.137,1.793c-1.226,0.435-2.615,0.65-4.168,0.65c-2.062,0-3.975-0.389-5.738-1.166
			c-1.764-0.776-3.287-1.838-4.571-3.182L265.05,59.857z"/>
	</g>
</g>
</svg>
