<?xml version="1.0" encoding="utf-8"?>
<!-- Generator: Adobe Illustrator 16.0.0, SVG Export Plug-In . SVG Version: 6.00 Build 0)  -->
<!DOCTYPE svg PUBLIC "-//W3C//DTD SVG 1.1//EN" "http://www.w3.org/Graphics/SVG/1.1/DTD/svg11.dtd">
<svg version="1.1" id="Layer_1" xmlns="http://www.w3.org/2000/svg" xmlns:xlink="http://www.w3.org/1999/xlink" x="0px" y="0px"
	 width="336.976px" height="66.805px" viewBox="0 0 336.976 66.805" enable-background="new 0 0 336.976 66.805"
	 xml:space="preserve">
<g>
	<g>
		<path fill="#1E396E" d="M0,37.042h6.993l3.496,13.625c0.448,1.614,0.844,3.176,1.188,4.685c0.343,1.509,0.74,3.07,1.188,4.684
			h0.179c0.418-1.613,0.807-3.175,1.166-4.684c0.358-1.509,0.747-3.07,1.166-4.685l3.451-13.625h6.723l-8.785,29.224H8.83L0,37.042z
			"/>
		<path fill="#1E396E" d="M28.687,37.042h6.589v29.224h-6.589V37.042z"/>
		<path fill="#1E396E" d="M40.789,51.834c0-2.42,0.373-4.579,1.121-6.477c0.747-1.898,1.755-3.503,3.025-4.819
			c1.27-1.314,2.749-2.315,4.438-3.003c1.688-0.687,3.474-1.031,5.356-1.031c1.822,0,3.474,0.381,4.953,1.143
			c1.479,0.762,2.711,1.651,3.698,2.667l-3.631,4.078c-0.747-0.687-1.501-1.224-2.263-1.613c-0.762-0.388-1.651-0.583-2.667-0.583
			c-1.016,0-1.965,0.217-2.846,0.65c-0.882,0.434-1.651,1.054-2.309,1.86c-0.658,0.807-1.173,1.793-1.546,2.959
			c-0.374,1.164-0.56,2.48-0.56,3.943c0,3.02,0.642,5.356,1.927,7.016c1.285,1.658,3.003,2.486,5.155,2.486
			c1.195,0,2.241-0.238,3.137-0.717c0.896-0.478,1.704-1.105,2.42-1.883l3.631,3.99c-1.226,1.434-2.622,2.51-4.191,3.227
			s-3.265,1.076-5.087,1.076c-1.882,0-3.661-0.322-5.334-0.964c-1.674-0.642-3.137-1.591-4.393-2.847
			c-1.255-1.254-2.241-2.816-2.958-4.684C41.147,56.443,40.789,54.284,40.789,51.834z"/>
		<path fill="#1E396E" d="M73.418,42.601h-8.023v-5.558h22.68v5.558h-8.023v23.666h-6.634V42.601z"/>
		<path fill="#1E396E" d="M103.27,66.805c-1.972,0-3.772-0.352-5.401-1.054c-1.629-0.702-3.025-1.71-4.191-3.025
			c-1.166-1.314-2.069-2.913-2.712-4.796s-0.963-4.019-0.963-6.41c0-2.39,0.321-4.52,0.963-6.387s1.546-3.436,2.712-4.707
			c1.166-1.27,2.562-2.241,4.191-2.913c1.628-0.672,3.429-1.009,5.401-1.009s3.772,0.336,5.401,1.009
			c1.628,0.672,3.025,1.651,4.191,2.936c1.165,1.285,2.069,2.862,2.711,4.729s0.964,3.982,0.964,6.342
			c0,2.392-0.321,4.527-0.964,6.41s-1.546,3.481-2.711,4.796c-1.166,1.315-2.562,2.323-4.191,3.025
			C107.042,66.453,105.242,66.805,103.27,66.805z M103.27,61.111c2.002,0,3.586-0.857,4.751-2.576
			c1.165-1.719,1.748-4.057,1.748-7.016c0-2.928-0.583-5.213-1.748-6.857c-1.166-1.643-2.75-2.465-4.751-2.465
			s-3.585,0.822-4.751,2.465c-1.166,1.645-1.748,3.93-1.748,6.857c0,2.959,0.583,5.297,1.748,7.016S101.268,61.111,103.27,61.111z"
			/>
		<path fill="#1E396E" d="M135.873,66.267l-5.603-10.533h-3.631v10.533h-6.589V37.042h10.533c1.554,0,3.01,0.15,4.371,0.448
			c1.359,0.299,2.547,0.8,3.563,1.501c1.016,0.703,1.822,1.636,2.42,2.801c0.598,1.166,0.896,2.615,0.896,4.347
			c0,2.152-0.471,3.923-1.412,5.312c-0.941,1.389-2.204,2.428-3.788,3.115l6.634,11.698H135.873z M126.639,50.489h3.407
			c1.732,0,3.055-0.366,3.967-1.099c0.911-0.731,1.367-1.814,1.367-3.25c0-1.434-0.456-2.435-1.367-3.002
			c-0.912-0.567-2.234-0.852-3.967-0.852h-3.407V50.489z"/>
		<path fill="#1E396E" d="M147.661,37.042h6.589v29.224h-6.589V37.042z"/>
		<path fill="#1E396E" d="M174.868,59.319h-8.919l-1.793,6.947h-6.724l9.144-29.224h7.934l9.144,29.224h-6.992L174.868,59.319z
			 M173.523,54.164l-0.673-2.689c-0.418-1.463-0.822-3.018-1.209-4.661c-0.389-1.643-0.777-3.227-1.166-4.751h-0.18
			c-0.358,1.554-0.725,3.146-1.098,4.773c-0.374,1.629-0.77,3.176-1.188,4.639l-0.717,2.689H173.523z"/>
		<path fill="#66BDCC" d="M191.094,36.863h16.942V40h-13.223v9.951h11.206v3.138h-11.206v13.178h-3.72V36.863z"/>
		<path fill="#66BDCC" d="M225.024,57.303h-10.713l-2.824,8.964h-3.811l9.951-29.403h4.213l9.951,29.403h-3.989L225.024,57.303z
			 M224.083,54.299l-1.391-4.482c-0.537-1.643-1.046-3.279-1.523-4.908c-0.479-1.628-0.957-3.294-1.434-4.997h-0.18
			c-0.449,1.703-0.912,3.369-1.39,4.997c-0.479,1.629-0.986,3.266-1.524,4.908l-1.389,4.482H224.083z"/>
		<path fill="#66BDCC" d="M235.96,36.863h3.855l10.623,18.467l3.182,6.096h0.18c-0.09-1.494-0.188-3.04-0.291-4.639
			c-0.105-1.599-0.157-3.176-0.157-4.729V36.863h3.541v29.403h-3.854L242.37,47.755l-3.183-6.051h-0.179
			c0.119,1.494,0.23,3.011,0.336,4.55c0.104,1.539,0.156,3.086,0.156,4.639v15.374h-3.541V36.863z"/>
		<path fill="#68BECD" d="M265.05,59.857c1.045,1.105,2.277,1.994,3.697,2.666c1.419,0.673,2.891,1.009,4.415,1.009
			c1.942,0,3.452-0.44,4.527-1.322c1.075-0.881,1.613-2.039,1.613-3.474c0-0.746-0.128-1.382-0.381-1.904
			c-0.254-0.523-0.599-0.971-1.03-1.346c-0.434-0.373-0.949-0.709-1.547-1.008s-1.24-0.612-1.928-0.941l-4.213-1.838
			c-0.688-0.299-1.39-0.656-2.107-1.076c-0.717-0.418-1.359-0.926-1.927-1.523s-1.03-1.307-1.39-2.129
			c-0.358-0.822-0.537-1.771-0.537-2.846c0-1.106,0.23-2.137,0.694-3.093c0.463-0.956,1.104-1.785,1.927-2.488
			c0.822-0.702,1.793-1.247,2.914-1.636c1.121-0.388,2.354-0.583,3.697-0.583c1.764,0,3.392,0.336,4.887,1.009
			c1.493,0.672,2.764,1.546,3.809,2.622l-2.016,2.42c-0.896-0.867-1.891-1.546-2.981-2.04s-2.323-0.74-3.698-0.74
			c-1.643,0-2.965,0.381-3.967,1.143c-1.001,0.762-1.501,1.815-1.501,3.16c0,0.717,0.142,1.322,0.426,1.814
			c0.284,0.494,0.665,0.928,1.144,1.301c0.477,0.373,1,0.702,1.568,0.986c0.566,0.283,1.15,0.545,1.748,0.783l4.168,1.793
			c0.836,0.359,1.629,0.771,2.376,1.233c0.747,0.464,1.39,1.001,1.927,1.613c0.539,0.612,0.965,1.33,1.277,2.151
			c0.314,0.822,0.471,1.771,0.471,2.847c0,1.165-0.231,2.257-0.694,3.272c-0.464,1.016-1.128,1.904-1.995,2.666
			c-0.866,0.762-1.912,1.36-3.137,1.793c-1.226,0.434-2.615,0.65-4.168,0.65c-2.062,0-3.975-0.389-5.738-1.166
			c-1.764-0.776-3.287-1.838-4.572-3.182L265.05,59.857z"/>
	</g>
	<g opacity="0.8">
		<circle opacity="0.7" fill="#66BDCC" cx="310.507" cy="26" r="6.185"/>
		<g>
			<path fill="#1E396E" d="M334.478,26h-15.4c0,2.109-0.762,4.041-2.025,5.534l4.75,4.004c2.445,1.974,5.17,2.25,6.9,2.319
				c4.514,0.179,8.273-3.674,8.273-8.19v-1.412C336.976,27.015,335.718,26,334.478,26z"/>
			<path opacity="0.5" fill="#66BDCC" d="M319.046,25.271l6.186-0.526c3.125-0.334,5.162-1.979,6.434-3.154
				c3.318-3.065,3.167-8.362-0.026-11.555l-0.999-0.999c-0.877-0.877-2.312-0.877-3.188,0l-10.894,10.894
				C317.952,21.321,318.871,23.19,319.046,25.271z"/>
			<path fill="#1E396E" d="M320.03,14.686c1.975-2.446,2.248-4.925,2.316-6.657C322.526,3.516,318.671,0,314.155,0h-1.412
				c-1.24,0-1.768,0.77-1.768,2.01v15.42c2,0,3.792,0.757,5.282,2.012L320.03,14.686z"/>
			<path opacity="0.5" fill="#66BDCC" d="M309.761,17.463l-0.529-6.207c-0.334-3.126-1.979-5.161-3.154-6.434
				c-3.064-3.317-8.361-3.166-11.555,0.027l-0.998,0.999c-0.877,0.877-0.877,2.312,0,3.189l10.914,10.914
				C305.825,18.559,307.688,17.642,309.761,17.463z"/>
			<path fill="#1E396E" d="M299.175,16.462c-2.447-1.974-5.183-2.25-6.914-2.319c-4.513-0.179-8.285,3.674-8.285,8.189v1.412
				c0,1.24,1.27,2.255,2.51,2.255h15.453c0-2.126,0.756-4.023,2.01-5.514L299.175,16.462z"/>
			<path opacity="0.5" fill="#66BDCC" d="M295.743,27.255c-3.125,0.334-5.161,1.979-6.434,3.154
				c-3.317,3.065-3.166,8.362,0.027,11.555l0.998,0.999c0.877,0.877,2.312,0.877,3.189,0l10.914-10.914
				c-1.385-1.39-2.296-3.252-2.469-5.324L295.743,27.255z"/>
			<path fill="#1E396E" d="M300.955,37.314c-1.975,2.446-2.253,4.925-2.321,6.657c-0.18,4.513,3.67,8.029,8.187,8.029h1.412
				c1.24,0,2.743-0.77,2.743-2.01V34.57c-3,0-4.271-0.762-5.766-2.024L300.955,37.314z"/>
			<path opacity="0.5" fill="#66BDCC" d="M311.743,40.744c0.334,3.126,1.979,5.161,3.154,6.434
				c3.064,3.318,8.361,3.166,11.555-0.027l0.998-0.998c0.877-0.877,0.877-2.312,0-3.189l-10.893-10.894
				c-1.395,1.39-3.264,2.301-5.343,2.471L311.743,40.744z"/>
		</g>
	</g>
</g>
</svg>
