<?xml version="1.0" encoding="utf-8"?>
<!-- Generator: Adobe Illustrator 16.0.0, SVG Export Plug-In . SVG Version: 6.00 Build 0)  -->
<!DOCTYPE svg PUBLIC "-//W3C//DTD SVG 1.1//EN" "http://www.w3.org/Graphics/SVG/1.1/DTD/svg11.dtd">
<svg version="1.1" id="Layer_1" xmlns="http://www.w3.org/2000/svg" xmlns:xlink="http://www.w3.org/1999/xlink" x="0px" y="0px"
	 width="358.374px" height="45.149px" viewBox="0 0 358.374 45.149" enable-background="new 0 0 358.374 45.149"
	 xml:space="preserve">
<g>
	<path fill="#1E396E" d="M31.821,21.547C27.79,10.9,20.113,7.681,17.772,7.712l-0.773,0.011L16.895,0L0,22.113l17.486,21.648
		L17.4,37.328c1.874-1.479,5.524-3.948,13.697,2.111c4.684,3.474,12.093,2.083,15.22,0.038
		C41.849,37.13,35.309,30.759,31.821,21.547z"/>
	<path fill="#1E396E" d="M35.938,23.603c4.031,10.646,11.707,13.865,14.049,13.834l0.773-0.011l0.104,7.724L67.76,23.036
		L50.272,1.387l0.087,6.435c-1.875,1.479-5.524,3.947-13.698-2.111c-4.683-3.474-12.093-2.084-15.22-0.038
		C25.911,8.02,32.451,14.391,35.938,23.603z"/>
	<g>
		<path fill="#1E396E" d="M72.262,9.045h6.993l3.496,13.625c0.448,1.613,0.844,3.176,1.188,4.685
			c0.343,1.509,0.739,3.07,1.188,4.685h0.179c0.418-1.613,0.808-3.176,1.166-4.685s0.747-3.07,1.166-4.685l3.451-13.625h6.723
			l-8.784,29.224h-7.936L72.262,9.045z"/>
		<path fill="#1E396E" d="M100.949,9.045h6.589v29.224h-6.589V9.045z"/>
		<path fill="#1E396E" d="M113.051,23.837c0-2.42,0.373-4.579,1.121-6.478c0.747-1.897,1.755-3.503,3.025-4.818
			c1.27-1.314,2.749-2.315,4.438-3.003s3.475-1.031,5.356-1.031c1.821,0,3.474,0.381,4.953,1.143
			c1.479,0.763,2.711,1.651,3.697,2.667l-3.631,4.078c-0.747-0.687-1.501-1.224-2.263-1.613c-0.762-0.388-1.651-0.583-2.667-0.583
			s-1.965,0.218-2.846,0.65c-0.883,0.434-1.651,1.054-2.31,1.86s-1.173,1.793-1.546,2.959c-0.374,1.164-0.56,2.479-0.56,3.942
			c0,3.021,0.642,5.356,1.927,7.017c1.285,1.657,3.003,2.485,5.155,2.485c1.194,0,2.24-0.237,3.137-0.717
			c0.896-0.478,1.704-1.104,2.42-1.883l3.631,3.99c-1.226,1.434-2.622,2.51-4.19,3.227c-1.569,0.717-3.266,1.076-5.088,1.076
			c-1.882,0-3.66-0.322-5.334-0.964c-1.674-0.643-3.137-1.591-4.393-2.847c-1.255-1.255-2.241-2.816-2.958-4.685
			C113.409,28.445,113.051,26.287,113.051,23.837z"/>
		<path fill="#1E396E" d="M145.68,14.604h-8.022V9.046h22.68v5.558h-8.022V38.27h-6.635V14.604z"/>
		<path fill="#1E396E" d="M175.532,38.808c-1.973,0-3.772-0.352-5.401-1.054s-3.024-1.71-4.19-3.025
			c-1.166-1.313-2.069-2.913-2.713-4.796c-0.643-1.883-0.963-4.019-0.963-6.41c0-2.39,0.321-4.52,0.963-6.387
			c0.643-1.867,1.547-3.437,2.713-4.707s2.562-2.241,4.19-2.913c1.628-0.672,3.429-1.009,5.401-1.009c1.972,0,3.771,0.336,5.4,1.009
			c1.628,0.672,3.025,1.651,4.191,2.936c1.165,1.285,2.069,2.862,2.711,4.729s0.964,3.982,0.964,6.342
			c0,2.393-0.321,4.527-0.964,6.41s-1.546,3.481-2.711,4.796c-1.166,1.315-2.562,2.323-4.191,3.025S177.504,38.808,175.532,38.808z
			 M175.532,33.113c2.002,0,3.586-0.856,4.751-2.575c1.165-1.72,1.748-4.058,1.748-7.017c0-2.928-0.583-5.213-1.748-6.856
			c-1.166-1.644-2.75-2.466-4.751-2.466s-3.585,0.822-4.751,2.466c-1.166,1.645-1.748,3.93-1.748,6.856
			c0,2.959,0.583,5.297,1.748,7.017C171.946,32.257,173.53,33.113,175.532,33.113z"/>
		<path fill="#1E396E" d="M208.135,38.27l-5.603-10.533h-3.631V38.27h-6.59V9.045h10.533c1.555,0,3.01,0.149,4.371,0.447
			c1.359,0.3,2.547,0.801,3.563,1.502c1.016,0.702,1.821,1.636,2.42,2.801c0.598,1.166,0.896,2.614,0.896,4.347
			c0,2.152-0.471,3.923-1.412,5.312c-0.94,1.389-2.204,2.428-3.788,3.114l6.635,11.698h-7.395V38.27z M198.901,22.491h3.406
			c1.732,0,3.056-0.365,3.968-1.099c0.91-0.73,1.366-1.813,1.366-3.25c0-1.434-0.456-2.435-1.366-3.002
			c-0.912-0.567-2.234-0.852-3.968-0.852h-3.406V22.491z"/>
		<path fill="#1E396E" d="M219.923,9.045h6.589v29.224h-6.589V9.045z"/>
		<path fill="#1E396E" d="M247.13,31.321h-8.919l-1.793,6.947h-6.724l9.144-29.224h7.935l9.144,29.224h-6.992L247.13,31.321z
			 M245.785,26.167l-0.673-2.689c-0.418-1.463-0.822-3.018-1.209-4.661c-0.39-1.643-0.777-3.227-1.166-4.751h-0.181
			c-0.357,1.555-0.725,3.146-1.098,4.773c-0.374,1.629-0.77,3.176-1.188,4.639l-0.717,2.689H245.785z"/>
		<path fill="#1E396E" d="M266.356,8.865h16.941v3.138h-13.223v9.951h11.206v3.138h-11.206V38.27h-3.721V8.865H266.356z"/>
		<path fill="#1E396E" d="M300.286,29.306h-10.713l-2.824,8.964h-3.812l9.951-29.403h4.213l9.951,29.403h-3.988L300.286,29.306z
			 M299.345,26.302l-1.391-4.482c-0.537-1.643-1.046-3.278-1.523-4.907c-0.479-1.629-0.957-3.295-1.434-4.997h-0.18
			c-0.449,1.702-0.912,3.368-1.391,4.997s-0.985,3.266-1.523,4.907l-1.39,4.482H299.345z"/>
		<path fill="#1E396E" d="M311.222,8.865h3.855L325.7,27.333l3.182,6.096h0.18c-0.09-1.494-0.188-3.04-0.291-4.639
			c-0.104-1.6-0.156-3.177-0.156-4.729V8.865h3.541v29.403h-3.854l-10.669-18.511l-3.183-6.051h-0.18
			c0.119,1.493,0.23,3.011,0.337,4.55c0.104,1.539,0.155,3.086,0.155,4.639V38.27h-3.541L311.222,8.865L311.222,8.865z"/>
		<path fill="#1E396E" d="M340.312,31.859c1.046,1.105,2.277,1.994,3.697,2.666c1.419,0.673,2.892,1.009,4.415,1.009
			c1.942,0,3.452-0.439,4.527-1.321c1.075-0.881,1.613-2.039,1.613-3.475c0-0.746-0.129-1.382-0.382-1.903
			c-0.254-0.523-0.599-0.972-1.029-1.347c-0.435-0.373-0.949-0.709-1.547-1.008c-0.599-0.299-1.24-0.611-1.929-0.94l-4.213-1.839
			c-0.688-0.299-1.39-0.655-2.106-1.075c-0.718-0.418-1.359-0.927-1.928-1.523c-0.567-0.597-1.029-1.307-1.39-2.129
			c-0.358-0.822-0.537-1.771-0.537-2.846c0-1.106,0.23-2.138,0.694-3.094c0.463-0.955,1.104-1.784,1.927-2.487
			c0.822-0.702,1.793-1.247,2.914-1.636s2.354-0.583,3.697-0.583c1.764,0,3.392,0.336,4.887,1.009
			c1.493,0.672,2.764,1.546,3.809,2.622l-2.016,2.42c-0.896-0.867-1.891-1.546-2.981-2.04c-1.09-0.494-2.322-0.74-3.697-0.74
			c-1.644,0-2.966,0.381-3.968,1.143c-1.001,0.763-1.501,1.815-1.501,3.16c0,0.717,0.143,1.322,0.427,1.814
			c0.283,0.494,0.665,0.928,1.144,1.301c0.478,0.373,1,0.702,1.568,0.986c0.565,0.283,1.149,0.545,1.748,0.783l4.168,1.793
			c0.836,0.358,1.629,0.771,2.376,1.232c0.747,0.464,1.39,1.001,1.927,1.613c0.539,0.612,0.965,1.33,1.277,2.15
			c0.313,0.822,0.471,1.771,0.471,2.848c0,1.165-0.231,2.257-0.694,3.271c-0.464,1.017-1.128,1.904-1.995,2.666
			c-0.865,0.763-1.911,1.36-3.137,1.793c-1.226,0.435-2.615,0.65-4.168,0.65c-2.062,0-3.975-0.389-5.738-1.166
			c-1.764-0.776-3.287-1.838-4.571-3.182L340.312,31.859z"/>
	</g>
</g>
</svg>
