<?xml version="1.0" encoding="utf-8"?>
<!-- Generator: Adobe Illustrator 16.0.0, SVG Export Plug-In . SVG Version: 6.00 Build 0)  -->
<!DOCTYPE svg PUBLIC "-//W3C//DTD SVG 1.1//EN" "http://www.w3.org/Graphics/SVG/1.1/DTD/svg11.dtd">
<svg version="1.1" id="Layer_1" xmlns="http://www.w3.org/2000/svg" xmlns:xlink="http://www.w3.org/1999/xlink" x="0px" y="0px"
	 width="174.357px" height="80.979px" viewBox="0 0 174.357 80.979" enable-background="new 0 0 174.357 80.979"
	 xml:space="preserve">
<g>
	<path fill="#FFFFFF" d="M133.877,0.019V0.016L43.558,0c-4.296-0.009-8.343,0.184-10.998,0.732C13.918,4.311,0,20.739,0,40.479
		c0,18.358,12.035,33.85,28.715,38.809c0.099,0.031,0.201,0.056,0.302,0.086c0.364,0.105,0.727,0.217,1.096,0.312
		c3.401,0.927,7.054,1.272,14.142,1.272l88.927,0.015c0.232,0.004,0.464,0.006,0.696,0.006c22.359,0,40.48-18.123,40.48-40.481
		C174.357,18.14,156.236,0.019,133.877,0.019z M133.877,77.381c-0.215,0-0.431-0.003-0.645-0.006h-0.025h-0.026l-75.376-0.014
		C71.714,70.911,81.39,56.821,81.39,40.505c0-16.356-9.725-30.475-23.69-36.903l72.579,0.012v0.003h3.599
		c20.336,0,36.883,16.544,36.883,36.88C170.76,60.834,154.213,77.381,133.877,77.381z M77.668,40.427
		c0,20.39-16.529,36.919-36.92,36.919c-20.39,0-36.92-16.529-36.92-36.919s16.53-36.919,36.92-36.919
		C61.139,3.507,77.668,20.037,77.668,40.427z"/>
	<g>
		<path fill="#FFFFFF" d="M52.092,22.191c0.719,0,1.311-0.594,1.311-1.315c0-0.719-0.592-1.313-1.311-1.313
			c-0.722,0-1.314,0.594-1.314,1.313C50.777,21.597,51.37,22.191,52.092,22.191z"/>
		<path fill="#FFFFFF" d="M47.291,12.978v6.784c0,1.546,0.739,2.338,2.377,2.338c0.216,0,0.396-0.036,0.396-0.036v-1.639
			c-0.578,0-0.758-0.178-0.758-0.681v-6.766H47.291z"/>
		<path fill="#FFFFFF" d="M48.298,11.627c0.72,0,1.314-0.592,1.314-1.312C49.612,9.594,49.018,9,48.298,9
			c-0.718,0-1.312,0.594-1.312,1.315C46.986,11.035,47.58,11.627,48.298,11.627z"/>
		<path fill="#FFFFFF" d="M42.999,18.25c1.204,0.108,1.494,0.45,1.494,1.115c0,0.792-0.702,1.117-2.144,1.117
			c-1.133,0-2.085-0.288-2.68-0.504v1.728c0.611,0.252,1.727,0.484,2.969,0.484c2.879,0,3.835-1.348,3.835-2.896
			c0-1.674-0.706-2.483-3.401-2.717c-1.172-0.108-1.493-0.378-1.493-1.008c0-0.809,0.664-1.116,1.726-1.116
			c1.133,0,1.98,0.216,2.752,0.505v-1.746c-0.699-0.306-1.563-0.449-2.787-0.449c-2.647,0-3.654,1.313-3.654,2.86
			C39.615,17.169,40.281,18.015,42.999,18.25z"/>
		<path fill="#FFFFFF" d="M40.847,73.261c0,0,20.044-33.912,20.19-34.241H20.575C20.717,39.368,40.847,73.261,40.847,73.261z"/>
		<path fill="#FFFFFF" d="M50.274,25.009c-3.812,0-7.251,1.843-9.344,4.974c-2.093-3.13-5.529-4.974-9.342-4.974
			c-6.146,0-11.175,4.756-11.437,10.701h41.372C61.266,29.765,56.32,25.009,50.274,25.009z"/>
		<path fill="#FFFFFF" d="M32.515,21.254c0.79,0.576,1.709,0.935,2.915,0.935c2.626,0,3.598-1.764,3.598-4.713
			c0-2.933-0.972-4.714-3.598-4.714c-0.9,0-1.765,0.287-2.412,0.701V8.479h-2.015v13.496h1.188L32.515,21.254z M33.018,14.992
			c0.359-0.197,0.991-0.522,1.942-0.522c1.765,0,2.035,1.35,2.035,3.006c0,1.673-0.271,3.005-2.035,3.005
			c-0.951,0-1.583-0.325-1.942-0.522V14.992z"/>
	</g>
	<g>
		<path fill="#FFFFFF" d="M86.016,20.81v-9.196h1.371v9.196H86.016z"/>
		<path fill="#FFFFFF" d="M89.229,19.525c0.528,0.085,1.371,0.2,2.171,0.2c0.785,0,1.542-0.114,1.956-0.514
			c0.243-0.229,0.386-0.542,0.386-0.942c0-0.899-0.557-1.2-2.143-1.671c-1.585-0.457-2.6-1.113-2.6-2.67
			c0-0.771,0.33-1.399,0.887-1.828c0.628-0.485,1.428-0.628,2.271-0.628s1.741,0.128,2.541,0.286l-0.17,1.143
			c-0.543-0.1-1.372-0.2-2.13-0.2c-0.627,0-1.227,0.072-1.584,0.328c-0.285,0.214-0.428,0.486-0.428,0.857
			c0,0.942,0.728,1.214,2.242,1.67c1.484,0.458,2.498,1.085,2.498,2.699c0,0.856-0.328,1.556-0.929,2.028
			c-0.642,0.514-1.556,0.671-2.528,0.671c-0.898,0-1.826-0.128-2.611-0.271L89.229,19.525z"/>
		<path fill="#FFFFFF" d="M96.157,16.212c0-3.113,1.185-4.741,3.97-4.741s3.97,1.628,3.97,4.741c0,3.113-1.185,4.741-3.97,4.741
			S96.157,19.325,96.157,16.212z M102.697,16.212c0-2.428-0.729-3.513-2.57-3.513s-2.57,1.085-2.57,3.513s0.729,3.513,2.57,3.513
			S102.697,18.64,102.697,16.212z"/>
		<path fill="#FFFFFF" d="M90.57,31.338c-0.486,0.328-1.256,0.572-2.07,0.572c-0.899,0-1.728-0.244-2.241-0.8
			c-0.472-0.485-0.714-1.228-0.714-2.271c0-0.985,0.242-1.728,0.728-2.228c0.543-0.585,1.472-0.856,2.514-0.856
			c0.913,0,1.742,0.214,2.284,0.671c0.572,0.5,0.872,1.271,0.872,2.327v3.413c0,1.057-0.3,1.828-0.886,2.342
			s-1.457,0.728-2.499,0.728c-0.856,0-1.771-0.128-2.542-0.286l0.172-1.142c0.485,0.1,1.328,0.229,2.142,0.229
			c0.743,0,1.429-0.1,1.8-0.486c0.299-0.3,0.441-0.785,0.441-1.485V31.338z M90.57,28.825c0-1.257-0.471-1.871-1.812-1.871
			c-1.343,0-1.813,0.614-1.813,1.871c0,0.643,0.113,1.128,0.414,1.442c0.313,0.343,0.813,0.443,1.399,0.443
			c0.686,0,1.342-0.158,1.812-0.329V28.825z"/>
		<path fill="#FFFFFF" d="M93.544,30.496c0-3.084,0.642-4.741,3.326-4.741c2.671,0,3.313,1.657,3.313,4.741
			c0,3.07-0.643,4.741-3.313,4.741C94.186,35.236,93.544,33.565,93.544,30.496z M98.812,30.496c0-2.185-0.129-3.542-1.942-3.542
			c-1.842,0-1.956,1.356-1.956,3.542c0,2.17,0.114,3.556,1.956,3.556C98.684,34.051,98.812,32.666,98.812,30.496z"/>
		<path fill="#FFFFFF" d="M101.77,30.496c0-3.084,0.644-4.741,3.328-4.741c2.671,0,3.313,1.657,3.313,4.741
			c0,3.07-0.643,4.741-3.313,4.741C102.413,35.236,101.77,33.565,101.77,30.496z M107.04,30.496c0-2.185-0.129-3.542-1.942-3.542
			c-1.842,0-1.956,1.356-1.956,3.542c0,2.17,0.114,3.556,1.956,3.556C106.911,34.051,107.04,32.666,107.04,30.496z"/>
		<path fill="#FFFFFF" d="M111.412,35.094v-7.812l-1.914,0.728l-0.414-0.928l2.456-1.185h1.242v9.196H111.412z"/>
	</g>
	<g>
		<path fill="#FFFFFF" d="M90.314,48.163c-1.389-0.813-2.51-1.111-3.375-1.719c-0.688-0.483-1.224-1.234-1.224-3.045
			c0-2.243,0.854-3.415,2.87-3.415c2.006,0,2.859,1.172,2.859,3.415c0,1.091-0.236,1.924-0.709,2.479
			c-0.464,0.545-1.245,0.751-1.934,0.771v0.021c0.658,0.113,1.336,0.34,1.934,0.617L90.314,48.163z M90.438,43.399
			c0-1.749-0.524-2.53-1.852-2.53c-1.337,0-1.861,0.782-1.861,2.53c0,1.749,0.524,2.531,1.861,2.531
			C89.913,45.93,90.438,45.148,90.438,43.399z"/>
		<path fill="#FFFFFF" d="M95.59,46.711l-0.072-0.401c-0.37,0.278-0.875,0.515-1.44,0.515c-1.069,0-1.604-0.648-1.604-1.656v-3.209
			h0.936v3.117c0,0.648,0.277,0.896,0.834,0.896c0.381,0,0.751-0.104,1.102-0.268v-3.745h0.935v4.752H95.59z"/>
		<path fill="#FFFFFF" d="M100.434,46.711l-0.103-0.401c-0.36,0.319-0.854,0.504-1.39,0.504c-0.977,0-1.574-0.647-1.574-1.491
			c0-0.422,0.165-0.844,0.505-1.111c0.318-0.257,0.771-0.359,1.275-0.359c0.329,0,0.71,0.02,1.038,0.041v-0.401
			c0-0.288-0.071-0.474-0.194-0.597c-0.175-0.164-0.463-0.206-0.844-0.206c-0.463,0-1.028,0.082-1.338,0.155l-0.144-0.783
			c0.411-0.124,1.019-0.206,1.563-0.206c0.597,0,1.091,0.082,1.431,0.37c0.298,0.247,0.463,0.638,0.463,1.214v3.271H100.434z
			 M100.186,44.582c-0.235-0.021-0.555-0.03-0.842-0.03c-0.69,0-1.02,0.247-1.02,0.771c0,0.453,0.299,0.751,0.812,0.751
			c0.381,0,0.772-0.134,1.049-0.35V44.582z"/>
		<path fill="#FFFFFF" d="M102.448,46.711v-6.625h0.936v6.625H102.448z"/>
		<path fill="#FFFFFF" d="M105.215,40.056c0.288,0,0.524,0.236,0.524,0.524c0,0.289-0.236,0.515-0.524,0.515
			c-0.287,0-0.516-0.226-0.516-0.515C104.699,40.292,104.928,40.056,105.215,40.056z M104.752,46.711v-4.752h0.936v4.752H104.752z"
			/>
		<path fill="#FFFFFF" d="M109.564,46.505c-0.318,0.165-0.729,0.288-1.142,0.288c-0.771,0-1.214-0.432-1.214-1.296v-2.767h-0.71
			v-0.69L107.24,42l0.072-1.399h0.833v1.358h1.327v0.772h-1.327v2.623c0,0.35,0.062,0.597,0.421,0.597
			c0.228,0,0.443-0.062,0.69-0.175L109.564,46.505z"/>
		<path fill="#FFFFFF" d="M111.292,48.584c0.278-0.73,0.505-1.379,0.669-1.873h-0.504c-0.484-1.316-0.978-3.045-1.409-4.752h0.977
			c0.319,1.399,0.669,2.736,1.079,4.012h0.074c0.38-1.152,0.781-2.645,1.09-4.012h0.956c-0.524,2.202-1.275,4.702-2.016,6.625
			H111.292z"/>
		<path fill="#FFFFFF" d="M91.528,58.138c-0.052-1.769-0.134-3.591-0.217-5.339h-0.05l-1.503,4.218h-1.06l-1.502-4.218h-0.051
			c-0.083,1.748-0.166,3.57-0.217,5.339h-0.998c0.071-2.201,0.186-4.413,0.309-6.625h1.44l1.522,4.394h0.051l1.523-4.394h1.441
			c0.122,2.212,0.234,4.424,0.308,6.625H91.528z"/>
		<path fill="#FFFFFF" d="M96.637,58.138l-0.102-0.401c-0.36,0.318-0.854,0.504-1.389,0.504c-0.977,0-1.574-0.647-1.574-1.491
			c0-0.422,0.164-0.843,0.505-1.11c0.318-0.258,0.771-0.361,1.275-0.361c0.329,0,0.71,0.021,1.039,0.042v-0.401
			c0-0.288-0.073-0.473-0.195-0.597c-0.177-0.165-0.463-0.206-0.844-0.206c-0.463,0-1.029,0.082-1.338,0.154l-0.144-0.781
			c0.411-0.123,1.019-0.205,1.564-0.205c0.596,0,1.09,0.082,1.429,0.369c0.298,0.248,0.464,0.638,0.464,1.215v3.271H96.637z
			 M96.392,56.008c-0.237-0.02-0.556-0.03-0.844-0.03c-0.689,0-1.019,0.247-1.019,0.771c0,0.452,0.299,0.751,0.814,0.751
			c0.379,0,0.77-0.134,1.048-0.35V56.008z"/>
		<path fill="#FFFFFF" d="M101.544,58.138v-3.117c0-0.606-0.278-0.896-0.803-0.896c-0.441,0-0.833,0.145-1.152,0.299v3.714h-0.936
			v-4.753h0.688l0.083,0.433c0.37-0.288,0.885-0.534,1.44-0.534c1.08,0,1.614,0.647,1.614,1.655v3.199H101.544z"/>
		<path fill="#FFFFFF" d="M106.553,58.138l-0.104-0.401c-0.36,0.318-0.854,0.504-1.389,0.504c-0.978,0-1.574-0.647-1.574-1.491
			c0-0.422,0.164-0.843,0.505-1.11c0.318-0.258,0.771-0.361,1.274-0.361c0.33,0,0.711,0.021,1.04,0.042v-0.401
			c0-0.288-0.072-0.473-0.195-0.597c-0.177-0.165-0.464-0.206-0.845-0.206c-0.463,0-1.029,0.082-1.337,0.154l-0.146-0.781
			c0.413-0.123,1.02-0.205,1.565-0.205c0.597,0,1.091,0.082,1.43,0.369c0.298,0.248,0.463,0.638,0.463,1.215v3.271H106.553z
			 M106.306,56.008c-0.237-0.02-0.556-0.03-0.844-0.03c-0.69,0-1.02,0.247-1.02,0.771c0,0.452,0.3,0.751,0.813,0.751
			c0.381,0,0.771-0.134,1.05-0.35V56.008z"/>
		<path fill="#FFFFFF" d="M111.313,57.872c-0.329,0.226-0.73,0.369-1.132,0.369c-1.348,0-1.841-0.874-1.841-2.438
			c0-1.779,0.556-2.52,1.872-2.52c0.71,0,1.521,0.153,2.037,0.328v4.959c0,0.514-0.166,0.875-0.432,1.131
			c-0.35,0.319-0.896,0.412-1.461,0.412c-0.537,0-1.092-0.082-1.533-0.164l0.123-0.803c0.34,0.051,0.834,0.123,1.276,0.123
			c0.38,0,0.729-0.041,0.904-0.216c0.124-0.134,0.186-0.329,0.186-0.587V57.872z M111.313,54.208
			c-0.278-0.052-0.669-0.093-1.008-0.093c-0.813,0-1.019,0.557-1.019,1.697c0,1.07,0.216,1.657,1.008,1.657
			c0.35,0,0.709-0.073,1.019-0.227V54.208z"/>
		<path fill="#FFFFFF" d="M117.012,57.861c-0.422,0.194-1.029,0.38-1.646,0.38c-1.399,0-2.15-0.874-2.15-2.447
			c0-1.307,0.598-2.51,2.048-2.51c1.151,0,1.82,0.822,1.82,2.098c0,0.258-0.03,0.515-0.071,0.721h-2.851
			c0.021,0.421,0.124,0.761,0.319,0.977c0.217,0.236,0.555,0.33,0.947,0.33c0.492,0,0.977-0.135,1.367-0.299L117.012,57.861z
			 M116.199,55.361c0-0.71-0.207-1.275-0.968-1.275c-0.689,0-1.019,0.617-1.06,1.275H116.199z"/>
		<path fill="#FFFFFF" d="M123.729,58.138v-3.147c0-0.597-0.289-0.865-0.813-0.865c-0.36,0-0.74,0.125-1.101,0.33
			c0.031,0.186,0.051,0.4,0.051,0.586v3.097h-0.936v-3.147c0-0.597-0.279-0.865-0.803-0.865c-0.381,0-0.711,0.104-1.061,0.289v3.724
			h-0.935v-4.753h0.688l0.082,0.433c0.34-0.257,0.823-0.534,1.43-0.534c0.566,0,0.988,0.215,1.234,0.605
			c0.412-0.339,0.916-0.605,1.482-0.605c1.06,0,1.615,0.586,1.615,1.748v3.106H123.729z"/>
		<path fill="#FFFFFF" d="M129.394,57.861c-0.423,0.194-1.028,0.38-1.646,0.38c-1.4,0-2.15-0.874-2.15-2.447
			c0-1.307,0.597-2.51,2.047-2.51c1.152,0,1.821,0.822,1.821,2.098c0,0.258-0.032,0.515-0.072,0.721h-2.851
			c0.021,0.421,0.124,0.761,0.319,0.977c0.217,0.236,0.556,0.33,0.946,0.33c0.494,0,0.978-0.135,1.369-0.299L129.394,57.861z
			 M128.581,55.361c0-0.71-0.206-1.275-0.968-1.275c-0.689,0-1.019,0.617-1.059,1.275H128.581z"/>
		<path fill="#FFFFFF" d="M133.404,58.138v-3.117c0-0.606-0.278-0.896-0.803-0.896c-0.443,0-0.833,0.145-1.152,0.299v3.714h-0.937
			v-4.753h0.689l0.083,0.433c0.369-0.288,0.885-0.534,1.439-0.534c1.08,0,1.615,0.647,1.615,1.655v3.199H133.404z"/>
		<path fill="#FFFFFF" d="M138.135,57.932c-0.318,0.165-0.73,0.289-1.142,0.289c-0.772,0-1.214-0.433-1.214-1.297v-2.768h-0.71
			v-0.689l0.741-0.04l0.071-1.399h0.833v1.357h1.328v0.771h-1.328v2.623c0,0.351,0.062,0.598,0.422,0.598
			c0.227,0,0.443-0.062,0.689-0.176L138.135,57.932z"/>
	</g>
</g>
</svg>
